<svg width="719" height="520" viewBox="0 0 719 520" fill="none" xmlns="http://www.w3.org/2000/svg">
<path d="M260 520C403.594 520 520 403.594 520 260C520 116.406 403.594 0 260 0C116.406 0 0 116.406 0 260C0 403.594 116.406 520 260 520Z" fill="#F2F2F2"/>
<g clip-path="url(#clip0_28_10)">
<path d="M154.161 459.754L164.617 459.753L169.592 419.468L154.159 419.469L154.161 459.754Z" fill="#FFB6B6"/>
<path d="M153.792 470.649L185.948 470.648V470.242C185.948 466.926 184.629 463.747 182.282 461.403C179.935 459.058 176.751 457.741 173.432 457.741H173.431L167.558 453.29L156.599 457.742L153.792 457.742L153.792 470.649Z" fill="#2F2E41"/>
<path d="M171.047 411.014L179.279 417.454L208.067 388.805L195.917 379.299L171.047 411.014Z" fill="#FFB6B6"/>
<path d="M164.03 419.364L189.344 439.169L189.595 438.849C191.641 436.239 192.566 432.924 192.166 429.633C191.766 426.342 190.073 423.344 187.46 421.299L187.459 421.299L185.583 414.177L174.208 410.932L171.998 409.203L164.03 419.364Z" fill="#2F2E41"/>
<path d="M220.277 227.461C220.277 227.461 234.155 241.836 227.987 275.206L233.165 332.344L234.501 334.989C235.298 336.565 235.576 338.352 235.296 340.095C235.016 341.838 234.192 343.449 232.942 344.697L231.842 348.107L230.814 354.781L192.52 412.281L177.871 396.879L201.515 342.973L195.09 329.112L180.184 280.853L169.904 369.156L171.96 445.137H152.284L140.092 360.428L127.242 241.322L133.926 227.461H220.277Z" fill="#2F2E41"/>
<path d="M130.447 252.161L130.306 251.964C122.817 241.492 134.081 216.326 135.78 212.678C133.762 212.025 132.034 210.692 130.89 208.909C129.746 207.125 129.255 205.001 129.503 202.897L130.236 196.679L130.999 190.58L125.53 185.118L125.515 184.982L122.368 157.477L117.792 139.208C116.067 132.302 116.214 125.062 118.217 118.231C120.22 111.4 124.007 105.225 129.189 100.339L139.766 98.6613L152.621 86.2904H173.351L180.459 93.0732C193.727 95.3975 196.007 94.6386 207.404 108.299L202.225 150.77L200.933 156.613L200.937 164.538L204.222 168.184C205.405 169.497 206.265 171.068 206.732 172.772C207.2 174.476 207.263 176.265 206.916 177.998L206.484 180.155C209.872 181.605 213.104 207.374 213.877 210.973L215.03 216.35C216.017 217.651 222.532 226.327 222.532 228.698C222.532 229.055 222.269 229.399 221.704 229.781C217.264 232.783 199.564 254.083 188.704 249.743C177.135 245.123 131.149 252.053 130.686 252.124L130.447 252.161Z" fill="#3F3D56"/>
<path d="M127.661 202.774C127.661 202.774 132.985 172.725 127.622 161.424L106.347 162.941L109.584 205.81L128.183 253.408C127.899 254.874 128.009 256.39 128.501 257.8C128.993 259.211 129.85 260.466 130.985 261.439C132.119 262.411 133.492 263.067 134.962 263.339C136.433 263.61 137.949 263.489 139.357 262.986C140.765 262.483 142.015 261.617 142.98 260.476C143.944 259.335 144.59 257.959 144.85 256.488C145.11 255.017 144.976 253.504 144.461 252.101C143.947 250.699 143.07 249.457 141.919 248.503L127.661 202.774Z" fill="#FFB6B6"/>
<path d="M106.347 145.486L107.663 131.165C108.159 125.774 109.716 120.535 112.247 115.749C114.777 110.962 118.229 106.722 122.406 103.273C125.001 101.146 128.14 99.7858 131.468 99.347C134.797 98.9081 138.182 99.4078 141.24 100.79C145.374 102.69 148.631 106.088 150.353 110.296C152.074 114.504 152.132 119.207 150.514 123.456C145.597 136.337 147.372 149.958 137.784 151.619L138.826 156.569L129.398 187.298L102.547 184.191L106.347 145.486Z" fill="#3F3D56"/>
<path d="M247.962 188.531C247.962 188.531 232.378 162.284 220.934 157.209L205.796 172.218L236.24 202.608L281.416 226.578C282.159 227.875 283.231 228.952 284.525 229.701C285.819 230.45 287.288 230.843 288.784 230.841C290.279 230.84 291.748 230.443 293.04 229.691C294.332 228.939 295.402 227.859 296.141 226.561C296.881 225.263 297.263 223.792 297.249 222.298C297.235 220.805 296.826 219.341 296.063 218.057C295.3 216.772 294.21 215.712 292.904 214.984C291.598 214.257 290.123 213.887 288.628 213.913L247.962 188.531Z" fill="#FFB6B6"/>
<path d="M194.399 158.985L186.046 147.27C182.903 142.861 180.663 137.874 179.456 132.597C178.249 127.32 178.098 121.857 179.012 116.522C179.591 113.219 181.083 110.144 183.319 107.643C185.556 105.142 188.448 103.317 191.669 102.372C196.044 101.12 200.732 101.575 204.784 103.643C208.837 105.712 211.951 109.24 213.499 113.515C218.181 126.483 235.259 147.796 229.075 155.3L233.096 158.374L239.174 175.668L216.79 190.802L194.399 158.985Z" fill="#3F3D56"/>
<path d="M161.587 80.3143C174.302 80.3143 184.609 70.0194 184.609 57.32C184.609 44.6206 174.302 34.3257 161.587 34.3257C148.873 34.3257 138.565 44.6206 138.565 57.32C138.565 70.0194 148.873 80.3143 161.587 80.3143Z" fill="#FFB6B6"/>
<path d="M144.88 73.5275C144.679 73.3514 144.489 73.1635 144.293 72.9826C144.286 73.0011 144.285 73.0201 144.277 73.0386L144.88 73.5275Z" fill="#2F2E41"/>
<path d="M180.454 33.038C179.31 31.1988 177.725 29.6731 175.844 28.5985C174.557 27.9754 173.206 27.497 171.814 27.1723L168.17 26.1794C166.303 25.6025 164.383 25.2162 162.438 25.0266C159.737 24.8936 157.052 25.5043 154.675 26.7922C152.298 28.0801 150.322 29.9956 148.961 32.3295C147.86 34.2795 146.977 36.7096 144.853 37.4231C143.14 37.9984 141.271 37.1869 139.47 37.3443C138.415 37.497 137.414 37.9072 136.556 38.5387C135.698 39.1702 135.009 40.0033 134.55 40.9643C133.652 42.8983 133.211 45.0119 133.259 47.1429C133.188 51.981 134.133 56.7801 136.034 61.2308C137.934 65.6815 140.748 69.6848 144.293 72.9827C144.887 71.4183 143.908 69.7293 143.135 68.2329C142.352 66.7187 141.868 64.6076 143.179 63.5171C144.638 62.3036 146.975 63.4803 148.701 62.689C149.253 62.3723 149.718 61.924 150.054 61.3841C150.39 60.8443 150.587 60.2296 150.628 59.5951C150.795 58.3378 150.62 57.0597 150.699 55.7939C150.778 54.539 151.104 53.3122 151.66 52.184C152.215 51.0559 152.989 50.0489 153.937 49.2212C154.884 48.3935 155.987 47.7615 157.18 47.3617C158.374 46.9618 159.634 46.8021 160.89 46.8917C164.817 47.1718 168.628 49.8522 172.408 48.7495C174.182 48.2319 175.695 46.9141 177.529 46.6924C179.561 46.4469 181.473 47.5923 183.198 48.692C183.825 46.0331 183.905 43.2746 183.433 40.5839C182.962 37.8931 181.948 35.326 180.454 33.038Z" fill="#2F2E41"/>
<path d="M260.266 457.73L254.407 448.327L253.237 453.7C253.032 454.642 252.827 455.598 252.637 456.546C250.973 455.127 249.202 453.814 247.47 452.554C242.151 448.699 236.835 444.839 231.521 440.973L233.185 450.612C234.211 456.546 235.282 462.603 237.82 468.029C238.101 468.644 238.405 469.251 238.732 469.843H263.457C263.656 469.293 263.793 468.723 263.867 468.143C263.873 468.105 263.876 468.067 263.875 468.029C264.262 464.348 262.226 460.88 260.266 457.73Z" fill="#F0F0F0"/>
<path d="M688.873 447.575L678.247 430.519L676.125 440.266C675.752 441.972 675.38 443.707 675.036 445.428C672.017 442.853 668.806 440.472 665.664 438.187C656.016 431.194 646.373 424.191 636.734 417.18L639.753 434.663C641.613 445.428 643.557 456.413 648.16 466.255C648.67 467.371 649.221 468.472 649.814 469.546H694.662C695.023 468.548 695.273 467.514 695.407 466.462C695.418 466.394 695.422 466.325 695.42 466.255C696.123 459.579 692.429 453.288 688.873 447.575Z" fill="#F0F0F0"/>
<path d="M718.095 470.767L89.9047 471C89.6652 470.999 89.4358 470.904 89.2667 470.734C89.0976 470.565 89.0026 470.336 89.0026 470.096C89.0026 469.857 89.0976 469.628 89.2667 469.458C89.4358 469.289 89.6652 469.193 89.9047 469.193L718.095 468.96C718.335 468.96 718.564 469.056 718.733 469.225C718.902 469.394 718.997 469.624 718.997 469.863C718.997 470.102 718.902 470.332 718.733 470.501C718.564 470.671 718.335 470.766 718.095 470.767Z" fill="#CACACA"/>
<path d="M286.099 205.849V423.677C286.101 426.453 287.206 429.115 289.171 431.078C291.136 433.041 293.801 434.144 296.58 434.147H619.767C622.546 434.145 625.211 433.041 627.176 431.078C629.142 429.115 630.247 426.453 630.249 423.678V205.849C630.242 203.075 629.135 200.418 627.171 198.458C625.206 196.497 622.544 195.395 619.767 195.391H296.58C293.804 195.395 291.141 196.497 289.177 198.458C287.212 200.418 286.105 203.075 286.099 205.849Z" fill="#3F3D56"/>
<path d="M293.68 208.559V420.99C293.683 422.474 294.274 423.895 295.324 424.944C296.374 425.993 297.797 426.583 299.282 426.586H617.077C618.562 426.583 619.985 425.993 621.035 424.944C622.085 423.895 622.676 422.474 622.679 420.99V208.559C622.679 207.074 622.089 205.65 621.038 204.599C619.988 203.548 618.564 202.956 617.077 202.952H299.282C297.796 202.956 296.371 203.548 295.321 204.599C294.271 205.65 293.681 207.074 293.68 208.559Z" fill="white"/>
<path d="M279.34 466.16C279.932 466.901 280.684 467.499 281.541 467.909C282.397 468.318 283.336 468.528 284.285 468.523H630.342C631.288 468.522 632.223 468.31 633.077 467.903C633.931 467.496 634.683 466.904 635.28 466.17C635.876 465.435 636.301 464.578 636.523 463.659C636.746 462.74 636.761 461.784 636.566 460.858L631.195 435.373C630.972 434.333 630.492 433.366 629.8 432.559C629.108 431.752 628.224 431.131 627.23 430.753C626.51 430.47 625.743 430.326 624.97 430.327H289.636C288.862 430.326 288.096 430.47 287.376 430.753C286.382 431.131 285.498 431.752 284.806 432.559C284.113 433.366 283.634 434.333 283.411 435.373L278.039 460.858C277.848 461.783 277.866 462.739 278.091 463.656C278.315 464.573 278.742 465.428 279.34 466.16Z" fill="#2F2E41"/>
<path d="M612.225 441.304H622.141C622.346 441.304 622.512 441.138 622.512 440.934V435.287C622.512 435.082 622.346 434.917 622.141 434.917H612.225C612.02 434.917 611.854 435.082 611.854 435.287V440.934C611.854 441.138 612.02 441.304 612.225 441.304Z" fill="#3F3D56"/>
<path d="M590.908 441.304H600.825C601.029 441.304 601.195 441.138 601.195 440.934V435.287C601.195 435.082 601.029 434.917 600.825 434.917H590.908C590.703 434.917 590.537 435.082 590.537 435.287V440.934C590.537 441.138 590.703 441.304 590.908 441.304Z" fill="#3F3D56"/>
<path d="M569.591 441.304H579.508C579.713 441.304 579.879 441.138 579.879 440.934V435.287C579.879 435.082 579.713 434.917 579.508 434.917H569.591C569.386 434.917 569.22 435.082 569.22 435.287V440.934C569.22 441.138 569.386 441.304 569.591 441.304Z" fill="#3F3D56"/>
<path d="M548.274 441.304H558.191C558.396 441.304 558.562 441.138 558.562 440.934V435.287C558.562 435.082 558.396 434.917 558.191 434.917H548.274C548.07 434.917 547.903 435.082 547.903 435.287V440.934C547.903 441.138 548.07 441.304 548.274 441.304Z" fill="#3F3D56"/>
<path d="M526.958 441.304H536.874C537.079 441.304 537.245 441.138 537.245 440.934V435.287C537.245 435.082 537.079 434.917 536.874 434.917H526.958C526.753 434.917 526.587 435.082 526.587 435.287V440.934C526.587 441.138 526.753 441.304 526.958 441.304Z" fill="#3F3D56"/>
<path d="M505.641 441.304H515.557C515.762 441.304 515.928 441.138 515.928 440.934V435.287C515.928 435.082 515.762 434.917 515.557 434.917H505.641C505.436 434.917 505.27 435.082 505.27 435.287V440.934C505.27 441.138 505.436 441.304 505.641 441.304Z" fill="#3F3D56"/>
<path d="M484.324 441.304H494.24C494.445 441.304 494.611 441.138 494.611 440.934V435.287C494.611 435.082 494.445 434.917 494.24 434.917H484.324C484.119 434.917 483.953 435.082 483.953 435.287V440.934C483.953 441.138 484.119 441.304 484.324 441.304Z" fill="#3F3D56"/>
<path d="M463.007 441.304H472.924C473.129 441.304 473.295 441.138 473.295 440.934V435.287C473.295 435.082 473.129 434.917 472.924 434.917H463.007C462.802 434.917 462.636 435.082 462.636 435.287V440.934C462.636 441.138 462.802 441.304 463.007 441.304Z" fill="#3F3D56"/>
<path d="M441.69 441.304H451.607C451.812 441.304 451.978 441.138 451.978 440.934V435.287C451.978 435.082 451.812 434.917 451.607 434.917H441.69C441.486 434.917 441.32 435.082 441.32 435.287V440.934C441.32 441.138 441.486 441.304 441.69 441.304Z" fill="#3F3D56"/>
<path d="M420.374 441.304H430.29C430.495 441.304 430.661 441.138 430.661 440.934V435.287C430.661 435.082 430.495 434.917 430.29 434.917H420.374C420.169 434.917 420.003 435.082 420.003 435.287V440.934C420.003 441.138 420.169 441.304 420.374 441.304Z" fill="#3F3D56"/>
<path d="M399.057 441.304H408.973C409.178 441.304 409.344 441.138 409.344 440.934V435.287C409.344 435.082 409.178 434.917 408.973 434.917H399.057C398.852 434.917 398.686 435.082 398.686 435.287V440.934C398.686 441.138 398.852 441.304 399.057 441.304Z" fill="#3F3D56"/>
<path d="M377.74 441.304H387.657C387.861 441.304 388.027 441.138 388.027 440.934V435.287C388.027 435.082 387.861 434.917 387.657 434.917H377.74C377.535 434.917 377.369 435.082 377.369 435.287V440.934C377.369 441.138 377.535 441.304 377.74 441.304Z" fill="#3F3D56"/>
<path d="M356.423 441.304H366.34C366.545 441.304 366.711 441.138 366.711 440.934V435.287C366.711 435.082 366.545 434.917 366.34 434.917H356.423C356.218 434.917 356.052 435.082 356.052 435.287V440.934C356.052 441.138 356.218 441.304 356.423 441.304Z" fill="#3F3D56"/>
<path d="M335.106 441.304H345.023C345.228 441.304 345.394 441.138 345.394 440.934V435.287C345.394 435.082 345.228 434.917 345.023 434.917H335.106C334.902 434.917 334.736 435.082 334.736 435.287V440.934C334.736 441.138 334.902 441.304 335.106 441.304Z" fill="#3F3D56"/>
<path d="M313.79 441.304H323.706C323.911 441.304 324.077 441.138 324.077 440.934V435.287C324.077 435.082 323.911 434.917 323.706 434.917H313.79C313.585 434.917 313.419 435.082 313.419 435.287V440.934C313.419 441.138 313.585 441.304 313.79 441.304Z" fill="#3F3D56"/>
<path d="M292.473 441.304H302.389C302.594 441.304 302.76 441.138 302.76 440.934V435.287C302.76 435.082 302.594 434.917 302.389 434.917H292.473C292.268 434.917 292.102 435.082 292.102 435.287V440.934C292.102 441.138 292.268 441.304 292.473 441.304Z" fill="#3F3D56"/>
<path d="M612.477 451.95H622.393C622.598 451.95 622.764 451.784 622.764 451.579V445.933C622.764 445.728 622.598 445.562 622.393 445.562H612.477C612.272 445.562 612.106 445.728 612.106 445.933V451.579C612.106 451.784 612.272 451.95 612.477 451.95Z" fill="#3F3D56"/>
<path d="M591.16 451.95H601.076C601.281 451.95 601.447 451.784 601.447 451.579V445.933C601.447 445.728 601.281 445.562 601.076 445.562H591.16C590.955 445.562 590.789 445.728 590.789 445.933V451.579C590.789 451.784 590.955 451.95 591.16 451.95Z" fill="#3F3D56"/>
<path d="M569.843 451.95H579.76C579.964 451.95 580.13 451.784 580.13 451.579V445.933C580.13 445.728 579.964 445.562 579.76 445.562H569.843C569.638 445.562 569.472 445.728 569.472 445.933V451.579C569.472 451.784 569.638 451.95 569.843 451.95Z" fill="#3F3D56"/>
<path d="M548.526 451.95H558.443C558.648 451.95 558.814 451.784 558.814 451.579V445.933C558.814 445.728 558.648 445.562 558.443 445.562H548.526C548.321 445.562 548.155 445.728 548.155 445.933V451.579C548.155 451.784 548.321 451.95 548.526 451.95Z" fill="#3F3D56"/>
<path d="M527.209 451.95H537.126C537.331 451.95 537.497 451.784 537.497 451.579V445.933C537.497 445.728 537.331 445.562 537.126 445.562H527.209C527.005 445.562 526.839 445.728 526.839 445.933V451.579C526.839 451.784 527.005 451.95 527.209 451.95Z" fill="#3F3D56"/>
<path d="M505.893 451.95H515.809C516.014 451.95 516.18 451.784 516.18 451.579V445.933C516.18 445.728 516.014 445.562 515.809 445.562H505.893C505.688 445.562 505.522 445.728 505.522 445.933V451.579C505.522 451.784 505.688 451.95 505.893 451.95Z" fill="#3F3D56"/>
<path d="M484.576 451.95H494.492C494.697 451.95 494.863 451.784 494.863 451.579V445.933C494.863 445.728 494.697 445.562 494.492 445.562H484.576C484.371 445.562 484.205 445.728 484.205 445.933V451.579C484.205 451.784 484.371 451.95 484.576 451.95Z" fill="#3F3D56"/>
<path d="M463.259 451.95H473.176C473.381 451.95 473.547 451.784 473.547 451.579V445.933C473.547 445.728 473.381 445.562 473.176 445.562H463.259C463.054 445.562 462.888 445.728 462.888 445.933V451.579C462.888 451.784 463.054 451.95 463.259 451.95Z" fill="#3F3D56"/>
<path d="M441.942 451.95H451.859C452.064 451.95 452.23 451.784 452.23 451.579V445.933C452.23 445.728 452.064 445.562 451.859 445.562H441.942C441.737 445.562 441.571 445.728 441.571 445.933V451.579C441.571 451.784 441.737 451.95 441.942 451.95Z" fill="#3F3D56"/>
<path d="M420.626 451.95H430.542C430.747 451.95 430.913 451.784 430.913 451.579V445.933C430.913 445.728 430.747 445.562 430.542 445.562H420.626C420.421 445.562 420.255 445.728 420.255 445.933V451.579C420.255 451.784 420.421 451.95 420.626 451.95Z" fill="#3F3D56"/>
<path d="M399.309 451.95H409.225C409.43 451.95 409.596 451.784 409.596 451.579V445.933C409.596 445.728 409.43 445.562 409.225 445.562H399.309C399.104 445.562 398.938 445.728 398.938 445.933V451.579C398.938 451.784 399.104 451.95 399.309 451.95Z" fill="#3F3D56"/>
<path d="M377.992 451.95H387.908C388.113 451.95 388.279 451.784 388.279 451.579V445.933C388.279 445.728 388.113 445.562 387.908 445.562H377.992C377.787 445.562 377.621 445.728 377.621 445.933V451.579C377.621 451.784 377.787 451.95 377.992 451.95Z" fill="#3F3D56"/>
<path d="M356.675 451.95H366.592C366.797 451.95 366.963 451.784 366.963 451.579V445.933C366.963 445.728 366.797 445.562 366.592 445.562H356.675C356.47 445.562 356.304 445.728 356.304 445.933V451.579C356.304 451.784 356.47 451.95 356.675 451.95Z" fill="#3F3D56"/>
<path d="M335.358 451.95H345.275C345.48 451.95 345.646 451.784 345.646 451.579V445.933C345.646 445.728 345.48 445.562 345.275 445.562H335.358C335.153 445.562 334.987 445.728 334.987 445.933V451.579C334.987 451.784 335.153 451.95 335.358 451.95Z" fill="#3F3D56"/>
<path d="M314.042 451.95H323.958C324.163 451.95 324.329 451.784 324.329 451.579V445.933C324.329 445.728 324.163 445.562 323.958 445.562H314.042C313.837 445.562 313.671 445.728 313.671 445.933V451.579C313.671 451.784 313.837 451.95 314.042 451.95Z" fill="#3F3D56"/>
<path d="M292.725 451.95H302.641C302.846 451.95 303.012 451.784 303.012 451.579V445.933C303.012 445.728 302.846 445.562 302.641 445.562H292.725C292.52 445.562 292.354 445.728 292.354 445.933V451.579C292.354 451.784 292.52 451.95 292.725 451.95Z" fill="#3F3D56"/>
<path d="M411.992 464.724H496.518C496.723 464.724 496.889 464.558 496.889 464.354V458.707C496.889 458.503 496.723 458.337 496.518 458.337H411.992C411.788 458.337 411.622 458.503 411.622 458.707V464.354C411.622 464.558 411.788 464.724 411.992 464.724Z" fill="#3F3D56"/>
<path d="M530.576 331.635C530.541 349.567 523.791 366.838 511.653 380.052C499.515 393.266 482.867 401.466 464.982 403.042C447.097 404.617 429.269 399.453 415.003 388.565C400.737 377.678 391.064 361.853 387.887 344.204C384.71 326.554 388.258 308.355 397.834 293.186C407.409 278.017 422.32 266.974 439.634 262.228C456.948 257.483 475.413 259.378 491.4 267.541C507.386 275.704 519.736 289.545 526.023 306.342C526.18 306.764 526.333 307.186 526.482 307.611V307.616C527.146 309.488 527.73 311.394 528.236 313.336C529.795 319.311 530.581 325.46 530.576 331.635Z" fill="#3F3D56"/>
<path d="M450.259 282.848C447.005 281.091 443.393 280.099 439.697 279.948C436.002 279.797 432.32 280.49 428.934 281.976C425.952 283.272 422.813 285.597 421.818 289.796C425.841 287.425 431.048 291.171 432.084 297.181L431.842 297.248C431.295 301.411 432.516 305.943 434.879 308.525C435.054 307.36 435.488 306.249 436.147 305.272C436.806 304.296 437.675 303.478 438.69 302.878C440.426 301.739 442.347 300.911 443.672 298.951C445.243 296.628 445.642 293.233 446.266 290.136C446.89 287.039 448.074 283.711 450.259 282.848Z" fill="#6C63FF"/>
<path d="M427.741 318.273C426.627 319.944 425.138 320.993 423.803 322.299C422.262 323.699 421.25 325.587 420.939 327.645C420.77 329.1 421.032 330.578 420.996 332.048C420.96 333.519 420.469 335.174 419.467 335.539C417.887 336.11 416.68 333.177 415.055 332.972C413.764 332.812 412.602 334.84 412.976 336.6C413.35 338.359 415.108 339.139 416.117 337.99C417.03 339.52 416.386 342.296 415.015 342.766C414.87 343.73 414.725 344.691 414.585 345.655C411.118 343.232 407.614 340.77 404.666 337.222C401.387 333.311 399.354 328.51 398.826 323.435C398.444 319.358 399.011 314.694 397.137 311.556C395.637 309.046 393.063 308.491 390.746 308.648C390.324 308.676 389.897 308.724 389.475 308.777C390.841 304.678 392.577 300.711 394.659 296.926C395.131 296.724 395.569 296.451 395.959 296.118C398.114 294.29 399.072 290.591 400.821 288.032C400.934 287.867 401.05 287.706 401.171 287.55C402.961 285.215 405.358 284.014 407.675 282.898C412.803 280.411 418.08 277.892 423.493 278.238L421.953 278.386C420.155 283.416 418.356 288.445 416.555 293.475C416.282 294.246 416.006 295.019 415.727 295.793C414.705 298.653 413.652 301.698 413.808 304.9C413.901 306.796 414.56 308.821 415.815 309.472C416.986 310.074 418.265 309.335 419.395 308.604C419.874 308.298 420.348 307.993 420.827 307.684C422.544 306.579 424.447 305.446 426.261 306.185C427.922 306.86 429.148 309.114 429.382 311.544C429.596 313.907 429.018 316.274 427.741 318.273Z" fill="#6C63FF"/>
<path d="M437.955 352.611C432.939 349.527 427.923 346.442 422.907 343.357L422.993 343.138C419.874 344.325 418.579 349.862 419.095 354.39C419.61 358.918 421.358 362.966 422.24 367.378C423.431 373.415 422.981 379.661 420.939 385.467C427.535 378.075 433.372 370.041 438.363 361.486C439.06 360.408 439.591 359.232 439.939 357.996C440.307 356.679 440.176 355.273 439.57 354.046C439.16 353.441 438.605 352.948 437.955 352.611Z" fill="#6C63FF"/>
<path d="M418.159 296.493C417.57 297.756 417.479 299.194 417.905 300.521C418.4 301.59 419.298 302.421 420.403 302.832L423.174 304.204C424.096 304.661 425.09 305.122 426.03 304.746C427.164 304.293 427.95 302.518 427.746 300.87C427.53 299.116 426.423 297.91 425.4 296.883C423.967 295.445 422.535 294.007 421.102 292.57L420.295 293.557C419.422 294.408 418.7 295.401 418.159 296.493Z" fill="#6C63FF"/>
<path d="M515.719 315.24C516.966 315.533 518.213 315.827 519.459 316.12C519.242 320.326 517.155 324.219 514.355 325.629C513.189 326.215 511.89 326.432 510.925 327.529C510.052 328.525 509.609 330.076 509.203 331.558C508.491 334.145 507.779 336.732 507.067 339.319C506.303 342.107 505.322 345.205 503.335 346.209C501.63 347.073 499.679 346.016 498.368 344.245C497.057 342.473 496.256 340.091 495.48 337.769C495.528 340.3 494.35 342.782 492.681 343.662C491.007 344.542 488.972 343.746 487.854 341.782C487.05 340.372 486.716 338.512 485.928 337.082C485.139 335.652 483.486 334.832 482.625 336.174C482.058 337.066 482.131 338.432 481.849 339.564C481.707 340.317 481.335 341.006 480.782 341.537C480.23 342.067 479.526 342.413 478.768 342.525C478.071 342.509 477.385 342.352 476.751 342.062C476.117 341.773 475.548 341.358 475.08 340.842C472.617 338.326 471.014 335.096 470.499 331.614C470.15 329.945 470.194 328.218 470.628 326.569C471.122 325.006 472.317 323.801 473.503 324.098C474.284 322.451 472.743 320.266 471.356 320.459C469.964 320.651 468.874 322.142 467.732 323.287C466.594 324.432 465.001 325.263 463.855 324.126C463.868 324.343 463.836 324.559 463.762 324.763C463.687 324.966 463.571 325.152 463.421 325.309C463.271 325.465 463.091 325.589 462.89 325.673C462.69 325.756 462.475 325.797 462.258 325.793C461.496 325.575 460.787 325.2 460.179 324.693C457.552 323.058 454.218 324.142 452.352 327.236C453.518 322.278 455.227 316.59 458.811 315.425C460.275 314.947 461.872 315.341 463.255 314.513C465.705 313.047 466.2 307.507 464.084 305.221C464.353 307.383 464.301 309.905 463.159 311.384C462.017 312.862 459.619 311.898 459.764 309.713C459.732 310.02 459.603 310.309 459.395 310.539C459.188 310.768 458.914 310.927 458.611 310.991C458.308 311.055 457.993 311.022 457.71 310.896C457.428 310.77 457.192 310.559 457.037 310.291C456.277 309.134 456.341 307.242 456.88 305.86C457.436 304.608 458.233 303.478 459.225 302.534C461.136 300.489 463.074 298.42 465.287 297.135C467.503 295.849 470.061 295.415 472.281 296.693C473.451 297.368 474.481 298.492 475.675 299.087C475.962 299.264 476.28 299.383 476.613 299.434C476.946 299.486 477.286 299.471 477.613 299.389C477.939 299.308 478.246 299.161 478.515 298.959C478.784 298.757 479.01 298.502 479.179 298.211C480.068 296.653 479.649 294.339 479.979 292.39C480.57 288.948 484.017 287.337 485.928 289.61C484.5 289.245 483.024 290.932 482.847 292.977C482.666 295.022 483.699 297.086 485.083 297.705C487.408 298.733 489.684 296.146 491.442 293.752C493.276 291.245 495.113 288.74 496.952 286.236C497.246 285.81 497.575 285.409 497.937 285.039C498.514 284.478 499.281 284.157 500.086 284.14C500.89 284.124 501.671 284.414 502.269 284.95C504.127 286.465 505 289.57 506.525 291.707C508.737 294.813 512.047 295.568 515.128 296.171C517.424 296.616 519.722 297.065 522.021 297.516C523.554 300.364 524.891 303.313 526.023 306.342C521.807 308.262 518.231 311.351 515.719 315.24Z" fill="#6C63FF"/>
<path d="M528.235 313.336C527.764 314.723 527.507 316.174 527.471 317.638C525.5 315.236 525.187 310.733 526.482 307.616C527.146 309.488 527.73 311.394 528.235 313.336Z" fill="#6C63FF"/>
<path d="M523.144 363.575C521.42 367.07 519.416 370.419 517.151 373.59C515.703 372.972 514.146 374.076 512.791 375.113C511.375 376.198 509.674 377.254 508.222 376.266C506.738 375.254 506.259 372.421 506.73 370.176C507.271 368.104 508.216 366.16 509.513 364.455C510.719 362.655 512.011 360.787 513.688 360.088C515.369 359.39 517.529 360.378 518.02 362.764L519.21 362.724C518.542 361.808 518.892 359.912 519.789 359.578C520.823 359.189 521.72 360.607 522.331 361.86C522.605 362.426 522.882 362.997 523.144 363.575Z" fill="#6C63FF"/>
<path d="M477.547 346.607C474.988 346.768 472.961 343.621 471.615 340.526C470.268 337.431 469.039 333.891 466.73 332.315C465.41 331.415 463.906 331.291 462.475 330.855C461.664 330.65 460.912 330.255 460.284 329.703C459.656 329.15 459.168 328.456 458.862 327.678L457.239 327.023C454.968 328.157 452.889 329.638 451.076 331.412C449.004 333.61 447.714 336.428 447.404 339.431C447.093 342.676 448.238 346.295 450.378 347.514C452.069 348.477 454.037 347.87 455.749 348.752C457.889 349.854 459.159 353.054 459.64 356.215C460.121 359.375 459.999 362.659 460.343 365.855C460.687 369.051 461.635 372.376 463.597 374.014C466.052 376.064 469.655 374.361 470.757 370.63C471.297 368.8 471.279 366.735 471.683 364.835C472.394 361.49 474.315 359.007 475.838 356.263C477.361 353.519 478.56 349.792 477.547 346.607Z" fill="#6C63FF"/>
<path d="M452.261 313.733C452.5 313.953 452.722 314.189 452.927 314.44C453.14 314.806 453.248 315.222 453.241 315.644C453.234 316.067 453.111 316.479 452.887 316.837C453.195 316.82 453.496 316.739 453.771 316.599C454.046 316.459 454.29 316.264 454.486 316.025C454.953 315.494 455.363 314.916 455.712 314.301C455.875 314.09 455.992 313.847 456.055 313.587C456.117 313.328 456.123 313.058 456.073 312.796C455.952 312.451 455.666 312.304 455.466 312.045C455.188 311.539 454.998 310.988 454.905 310.418C454.794 309.884 454.536 309.391 454.16 308.995C453.784 308.599 453.305 308.316 452.776 308.177L452.904 308.202C452.686 308.331 452.514 308.525 452.412 308.758C452.309 308.99 452.282 309.248 452.335 309.496C452.412 309.997 452.735 310.413 452.703 310.925C452.657 311.66 451.921 312.005 451.875 312.74C451.868 313.109 452.007 313.466 452.261 313.733Z" fill="#6C63FF"/>
<path d="M447.877 301.24L447.888 301.238C447.967 301.166 448.04 301.088 448.106 301.005L447.877 301.24Z" fill="#6C63FF"/>
<path d="M448.644 304.691C448.952 304.421 449.179 304.073 449.301 303.683C449.424 303.294 449.437 302.878 449.339 302.481C449.153 301.645 448.495 301.083 447.888 301.238C447.712 301.416 447.494 301.547 447.253 301.617C447.013 301.688 446.758 301.696 446.513 301.642C446.138 301.545 445.726 301.297 445.401 301.579C445.215 301.79 445.084 302.044 445.022 302.318C444.901 302.688 444.781 303.057 444.661 303.426C444.603 303.558 444.588 303.705 444.618 303.846C444.641 303.902 444.678 303.952 444.726 303.99C444.774 304.028 444.831 304.053 444.891 304.063C445.614 304.276 446.336 304.488 447.059 304.701C447.308 304.816 447.579 304.874 447.853 304.872C448.127 304.871 448.397 304.809 448.644 304.691Z" fill="#6C63FF"/>
<path d="M503.2 352.335C502.866 351.788 502.532 351.242 502.198 350.696C501.87 350.063 501.421 349.501 500.877 349.04C500.758 348.94 500.619 348.864 500.47 348.819C500.321 348.773 500.164 348.757 500.009 348.773C499.854 348.788 499.703 348.835 499.566 348.909C499.429 348.984 499.309 349.085 499.211 349.206L499.252 349.518C500.146 350.476 500.756 351.664 501.012 352.949C501.088 353.507 501.062 354.085 501.129 354.645C501.136 354.905 501.194 355.161 501.3 355.399C501.406 355.636 501.558 355.85 501.747 356.029C502.273 356.38 502.891 355.863 503.265 355.231C503.6 354.713 503.75 354.096 503.692 353.482C503.608 353.07 503.441 352.679 503.2 352.335Z" fill="#6C63FF"/>
<path d="M508.44 353.046C508.504 352.534 508.462 352.015 508.318 351.52C508.294 350.851 508.472 350.19 508.828 349.622C509.182 349.087 509.45 348.5 509.623 347.882C509.696 347.6 509.682 347.304 509.585 347.03C509.474 346.782 509.206 346.668 509.053 346.865L509.381 347.076C508.938 346.997 508.481 347.019 508.047 347.141C507.8 347.236 507.578 347.388 507.402 347.587C507.226 347.785 507.101 348.022 507.036 348.279C506.982 348.68 506.893 349.075 506.771 349.461C506.575 349.863 506.195 349.997 505.957 350.35C505.794 350.664 505.712 351.012 505.718 351.365C505.724 351.718 505.817 352.064 505.99 352.372C506.29 352.875 506.766 353.249 507.326 353.421C507.728 353.565 508.257 353.573 508.44 353.046Z" fill="#6C63FF"/>
<path d="M517.772 355.858C517.917 356.235 518.112 356.591 518.35 356.918C518.797 357.367 519.404 357.091 519.946 356.982C520.438 356.904 520.942 356.961 521.404 357.146C521.866 357.331 522.27 357.638 522.571 358.033C522.361 356.986 521.903 356.005 521.234 355.172C520.565 354.339 519.706 353.678 518.729 353.245C517.459 352.806 516.12 352.597 514.777 352.628L514.547 352.686C515.132 354.387 516.968 354.349 517.772 355.858Z" fill="#6C63FF"/>
<path d="M478.247 359.336L478.251 359.344L478.318 359.215L478.247 359.336Z" fill="#6C63FF"/>
<path d="M476.832 362.073C476.523 362.632 476.257 363.215 476.037 363.815C475.746 364.787 475.553 365.786 475.462 366.797C475.39 367.372 475.368 368.106 475.728 368.386C475.832 368.454 475.957 368.483 476.08 368.466C476.203 368.45 476.316 368.389 476.397 368.295C476.597 368.083 476.761 367.84 476.882 367.575C477.59 366.356 478.141 365.052 478.519 363.695C478.914 362.254 478.819 360.724 478.251 359.343C477.778 360.253 477.305 361.163 476.832 362.073Z" fill="#6C63FF"/>
<path d="M463.174 289.154C463.399 289.373 463.683 289.522 463.992 289.582C464.301 289.643 464.62 289.611 464.911 289.492C465.514 289.229 466.067 288.864 466.546 288.414C466.942 288.121 467.279 287.754 467.536 287.334C467.679 287.083 467.77 286.807 467.804 286.521C467.839 286.234 467.817 285.944 467.739 285.667C467.628 285.401 467.452 285.167 467.225 284.988C466.999 284.81 466.731 284.692 466.446 284.645C465.644 284.408 464.842 284.17 464.04 283.932L464.62 283.41C464.023 283.09 463.363 283.684 462.99 284.419C462.75 284.899 462.583 285.412 462.495 285.941C462.368 286.494 462.363 287.067 462.48 287.622C462.598 288.177 462.834 288.7 463.174 289.154Z" fill="#6C63FF"/>
<path d="M477.336 284.405C477.562 284.654 477.874 284.808 478.21 284.835C478.545 284.862 478.878 284.761 479.142 284.552C479.368 284.382 479.557 284.166 479.694 283.918C479.832 283.671 479.916 283.397 479.94 283.115C479.997 282.485 479.685 281.784 479.24 281.73L479.342 281.14C478.483 280.985 477.427 280.954 476.967 281.995C476.812 282.394 476.764 282.826 476.829 283.249C476.894 283.672 477.068 284.071 477.336 284.405Z" fill="#6C63FF"/>
<path d="M605.33 241.41H311.029C310.828 241.405 310.636 241.322 310.495 241.178C310.354 241.034 310.275 240.841 310.275 240.639C310.275 240.438 310.354 240.244 310.495 240.1C310.636 239.956 310.828 239.873 311.029 239.869H605.33C605.531 239.873 605.723 239.956 605.864 240.1C606.006 240.244 606.085 240.438 606.085 240.639C606.085 240.841 606.006 241.034 605.864 241.178C605.723 241.322 605.531 241.405 605.33 241.41Z" fill="#CACACA"/>
<path d="M328.015 230.622C332.6 230.622 336.317 226.827 336.317 222.145C336.317 217.464 332.6 213.669 328.015 213.669C323.431 213.669 319.714 217.464 319.714 222.145C319.714 226.827 323.431 230.622 328.015 230.622Z" fill="#6C63FF"/>
<path d="M356.693 230.622C361.278 230.622 364.994 226.827 364.994 222.145C364.994 217.464 361.278 213.669 356.693 213.669C352.108 213.669 348.392 217.464 348.392 222.145C348.392 226.827 352.108 230.622 356.693 230.622Z" fill="#6C63FF"/>
<path d="M385.371 230.622C389.955 230.622 393.672 226.827 393.672 222.145C393.672 217.464 389.955 213.669 385.371 213.669C380.786 213.669 377.069 217.464 377.069 222.145C377.069 226.827 380.786 230.622 385.371 230.622Z" fill="#6C63FF"/>
<path d="M588.145 215.77H567.774C567.37 215.778 566.985 215.944 566.703 216.232C566.42 216.52 566.261 216.907 566.261 217.311C566.261 217.714 566.42 218.101 566.703 218.389C566.985 218.678 567.37 218.843 567.774 218.851H588.145C588.548 218.843 588.933 218.678 589.216 218.389C589.498 218.101 589.657 217.714 589.657 217.311C589.657 216.907 589.498 216.52 589.216 216.232C588.933 215.944 588.548 215.778 588.145 215.77Z" fill="#3F3D56"/>
<path d="M588.145 221.553H567.774C567.37 221.561 566.985 221.727 566.703 222.015C566.42 222.303 566.261 222.69 566.261 223.094C566.261 223.497 566.42 223.884 566.703 224.172C566.985 224.46 567.37 224.626 567.774 224.634H588.145C588.548 224.626 588.933 224.46 589.216 224.172C589.498 223.884 589.657 223.497 589.657 223.094C589.657 222.69 589.498 222.303 589.216 222.015C588.933 221.727 588.548 221.561 588.145 221.553Z" fill="#3F3D56"/>
<path d="M588.145 227.328H567.774C567.37 227.336 566.985 227.502 566.703 227.79C566.42 228.078 566.261 228.466 566.261 228.869C566.261 229.272 566.42 229.66 566.703 229.948C566.985 230.236 567.37 230.402 567.774 230.41H588.145C588.548 230.402 588.933 230.236 589.216 229.948C589.498 229.66 589.657 229.272 589.657 228.869C589.657 228.466 589.498 228.078 589.216 227.79C588.933 227.502 588.548 227.336 588.145 227.328Z" fill="#3F3D56"/>
</g>
<defs>
<clipPath id="clip0_28_10">
<rect width="630" height="446" fill="white" transform="translate(89 25)"/>
</clipPath>
</defs>
</svg>
